<svg xmlns="http://www.w3.org/2000/svg" xmlns:xlink="http://www.w3.org/1999/xlink" width="500" zoomAndPan="magnify" viewBox="0 0 375 374.999991" height="500" preserveAspectRatio="xMidYMid meet" version="1.0"><defs><clipPath id="fae7f8e8a0"><path d="M 63.976562 57 L 310.726562 57 L 310.726562 316 L 63.976562 316 Z M 63.976562 57 " clip-rule="nonzero"/></clipPath></defs><g clip-path="url(#fae7f8e8a0)"><path fill="#2b3759" d="M 274.460938 174.410156 L 274.460938 250.136719 C 274.460938 262.554688 268.199219 273.21875 257.347656 279.253906 C 228.257812 295.453125 146.71875 295.453125 117.632812 279.253906 C 115.910156 278.296875 114.308594 277.222656 112.824219 276.042969 L 100.636719 297.152344 C 102.300781 298.3125 104.039062 299.40625 105.847656 300.414062 C 142.398438 320.769531 232.570312 320.769531 269.121094 300.414062 C 287.648438 290.097656 298.671875 271.339844 298.671875 250.136719 L 298.671875 228.855469 L 301.371094 238.921875 C 306.863281 237.683594 310.992188 232.757812 310.992188 226.902344 L 310.992188 213.976562 C 310.992188 207.199219 305.882812 200.210938 299.105469 200.210938 L 298.277344 166.691406 C 297.746094 145.074219 269.097656 139.265625 250.269531 135.230469 C 217.253906 128.160156 189.125 140.925781 200.679688 112.171875 C 238.566406 126.863281 245.9375 86.058594 270.730469 68.390625 C 256.234375 56.945312 236.699219 54.171875 219.582031 61.121094 C 202.464844 68.074219 190.394531 83.683594 187.980469 102 C 201.253906 86.632812 219.582031 76.511719 239.671875 73.472656 C 214.125 81 202.816406 94.40625 189.773438 116.144531 C 154.417969 190.746094 263.25 132.632812 274.460938 174.410156 M 172.535156 207.511719 C 170.238281 211.53125 165.910156 214.238281 160.949219 214.238281 C 153.585938 214.238281 147.621094 208.273438 147.621094 200.90625 C 147.621094 197.203125 149.132812 193.855469 151.566406 191.4375 C 150.433594 191.289062 149.273438 191.214844 148.097656 191.214844 C 133.484375 191.214844 121.636719 203.0625 121.636719 217.675781 C 121.636719 232.289062 133.484375 244.132812 148.097656 244.132812 C 162.710938 244.132812 174.558594 232.289062 174.558594 217.675781 C 174.558594 214.074219 173.839844 210.640625 172.535156 207.511719 Z M 226.871094 191.214844 C 212.257812 191.214844 200.410156 203.0625 200.410156 217.675781 C 200.410156 232.289062 212.257812 244.132812 226.871094 244.132812 C 241.484375 244.132812 253.332031 232.289062 253.332031 217.675781 C 253.332031 215.207031 252.992188 212.816406 252.359375 210.554688 C 249.96875 212.835938 246.726562 214.238281 243.160156 214.238281 C 235.796875 214.238281 229.828125 208.273438 229.828125 200.90625 C 229.828125 197.476562 231.125 194.351562 233.25 191.988281 C 231.210938 191.488281 229.074219 191.214844 226.871094 191.214844 Z M 170.722656 261.90625 C 181.300781 267.074219 193.667969 267.074219 204.25 261.90625 C 200.066406 266.824219 193.9375 269.65625 187.480469 269.65625 C 181.03125 269.65625 174.902344 266.824219 170.722656 261.90625 Z M 176.136719 129.671875 C 158.949219 130.125 141.175781 131.699219 124.699219 135.226562 C 105.867188 139.257812 82.726562 147.246094 77.125 168.132812 L 76.296875 201.648438 L 76.296875 212.015625 L 73.597656 201.945312 C 68.109375 203.195312 63.976562 208.125 63.976562 213.976562 L 63.976562 226.902344 C 63.976562 233.679688 69.519531 239.226562 76.296875 239.226562 L 76.296875 250.140625 C 76.296875 269.222656 85.226562 286.316406 100.511719 297.070312 L 100.511719 174.410156 C 103.59375 162.929688 133.011719 156.230469 166.820312 154.316406 C 172.375 161.179688 180.585938 165.539062 189.582031 166.164062 C 176.410156 159.246094 170.601562 143.484375 176.136719 129.671875 Z M 176.136719 129.671875 " fill-opacity="1" fill-rule="evenodd"/></g></svg>