<svg xmlns="http://www.w3.org/2000/svg" xmlns:xlink="http://www.w3.org/1999/xlink" width="500" zoomAndPan="magnify" viewBox="0 0 375 374.999991" height="500" preserveAspectRatio="xMidYMid meet" version="1.0"><defs><g/></defs><g fill="#263151" fill-opacity="1"><g transform="translate(73.444496, 206.811828)"><g><path d="M 0 0 L 10.59375 -36.140625 L 25.5 -36.140625 L 36.09375 0 L 26.390625 0 L 24.578125 -7.203125 L 11.53125 -7.203125 L 9.71875 0 Z M 13.34375 -14.265625 L 22.75 -14.265625 L 18.9375 -29.234375 L 17.171875 -29.234375 Z M 13.34375 -14.265625 "/></g></g></g><g fill="#263151" fill-opacity="1"><g transform="translate(114.44327, 206.811828)"><g><path d="M 3.4375 0 L 3.4375 -36.140625 L 12.609375 -36.140625 L 12.609375 -7.453125 L 29.1875 -7.453125 L 29.1875 0 Z M 3.4375 0 "/></g></g></g><g fill="#263151" fill-opacity="1"><g transform="translate(149.262878, 206.811828)"><g><path d="M 3.4375 0 L 3.4375 -36.140625 L 30.609375 -36.140625 L 30.609375 -28.6875 L 12.609375 -28.6875 L 12.609375 -21.046875 L 28.34375 -21.046875 L 28.34375 -14.125 L 12.609375 -14.125 L 12.609375 0 Z M 3.4375 0 "/></g></g></g><g fill="#263151" fill-opacity="1"><g transform="translate(185.504672, 206.811828)"><g><path d="M 3.4375 0 L 3.4375 -36.140625 L 28.0625 -36.140625 L 33.546875 -30.703125 L 33.546875 -17.75 L 29.421875 -13.640625 L 34.921875 0 L 25.703125 0 L 20.9375 -12.3125 L 12.609375 -12.3125 L 12.609375 0 Z M 12.609375 -19.28125 L 22.90625 -19.28125 L 24.625 -20.984375 L 24.625 -27.46875 L 22.90625 -29.1875 L 12.609375 -29.1875 Z M 12.609375 -19.28125 "/></g></g></g><g fill="#263151" fill-opacity="1"><g transform="translate(226.797685, 206.811828)"><g><path d="M 3.4375 0 L 3.4375 -36.140625 L 30.90625 -36.140625 L 30.90625 -28.6875 L 12.609375 -28.6875 L 12.609375 -22.015625 L 29.078125 -22.015625 L 29.078125 -15.109375 L 12.609375 -15.109375 L 12.609375 -7.453125 L 30.90625 -7.453125 L 30.90625 0 Z M 3.4375 0 "/></g></g></g><g fill="#263151" fill-opacity="1"><g transform="translate(265.050158, 206.811828)"><g><path d="M 3.4375 0 L 3.4375 -36.140625 L 27.03125 -36.140625 L 34.53125 -28.640625 L 34.53125 -7.5 L 27.03125 0 Z M 12.609375 -6.96875 L 23.046875 -6.96875 L 25.65625 -9.5625 L 25.65625 -26.578125 L 23.046875 -29.1875 L 12.609375 -29.1875 Z M 12.609375 -6.96875 "/></g></g></g></svg>