<svg xmlns="http://www.w3.org/2000/svg" xmlns:xlink="http://www.w3.org/1999/xlink" width="500" zoomAndPan="magnify" viewBox="0 0 375 374.999991" height="500" preserveAspectRatio="xMidYMid meet" version="1.0"><defs><g/><clipPath id="cb0169faf2"><path d="M 142.683594 101 L 232.683594 101 L 232.683594 196 L 142.683594 196 Z M 142.683594 101 " clip-rule="nonzero"/></clipPath></defs><rect x="-37.5" width="450" fill="#ffffff" y="-37.499999" height="449.999989" fill-opacity="1"/><rect x="-37.5" width="450" fill="#ffffff" y="-37.499999" height="449.999989" fill-opacity="1"/><g clip-path="url(#cb0169faf2)"><path fill="#2b3759" d="M 219.046875 143.804688 L 219.046875 171.277344 C 219.046875 175.785156 216.773438 179.652344 212.835938 181.84375 C 202.28125 187.71875 172.703125 187.71875 162.148438 181.84375 C 161.523438 181.496094 160.941406 181.105469 160.402344 180.679688 L 155.984375 188.335938 C 156.585938 188.757812 157.21875 189.152344 157.875 189.519531 C 171.132812 196.902344 203.847656 196.902344 217.109375 189.519531 C 223.828125 185.777344 227.828125 178.972656 227.828125 171.277344 L 227.828125 163.558594 L 228.808594 167.210938 C 230.800781 166.761719 232.296875 164.972656 232.296875 162.851562 L 232.296875 158.160156 C 232.296875 155.703125 230.445312 153.164062 227.984375 153.164062 L 227.683594 141.007812 C 227.492188 133.164062 217.097656 131.054688 210.269531 129.59375 C 198.289062 127.027344 188.085938 131.65625 192.277344 121.226562 C 206.023438 126.554688 208.695312 111.753906 217.691406 105.34375 C 212.433594 101.191406 205.34375 100.183594 199.136719 102.707031 C 192.925781 105.230469 188.546875 110.890625 187.671875 117.535156 C 192.484375 111.960938 199.136719 108.289062 206.421875 107.1875 C 197.15625 109.917969 193.054688 114.78125 188.320312 122.667969 C 175.496094 149.730469 214.976562 128.648438 219.046875 143.804688 M 182.066406 155.816406 C 181.234375 157.273438 179.664062 158.253906 177.863281 158.253906 C 175.191406 158.253906 173.027344 156.089844 173.027344 153.417969 C 173.027344 152.074219 173.578125 150.859375 174.460938 149.984375 C 174.046875 149.929688 173.628906 149.902344 173.203125 149.902344 C 167.898438 149.902344 163.601562 154.199219 163.601562 159.503906 C 163.601562 164.804688 167.898438 169.101562 173.203125 169.101562 C 178.503906 169.101562 182.800781 164.804688 182.800781 159.503906 C 182.800781 158.195312 182.539062 156.949219 182.066406 155.816406 Z M 201.78125 149.902344 C 196.476562 149.902344 192.179688 154.199219 192.179688 159.503906 C 192.179688 164.804688 196.476562 169.101562 201.78125 169.101562 C 207.082031 169.101562 211.378906 164.804688 211.378906 159.503906 C 211.378906 158.605469 211.257812 157.738281 211.027344 156.917969 C 210.160156 157.746094 208.984375 158.253906 207.6875 158.253906 C 205.015625 158.253906 202.851562 156.089844 202.851562 153.417969 C 202.851562 152.175781 203.324219 151.042969 204.09375 150.183594 C 203.355469 150 202.578125 149.902344 201.78125 149.902344 Z M 181.410156 175.546875 C 185.246094 177.421875 189.734375 177.421875 193.570312 175.546875 C 192.054688 177.332031 189.832031 178.359375 187.488281 178.359375 C 185.148438 178.359375 182.925781 177.332031 181.410156 175.546875 Z M 183.375 127.574219 C 177.136719 127.738281 170.691406 128.3125 164.710938 129.589844 C 157.878906 131.054688 149.484375 133.953125 147.453125 141.527344 L 147.152344 153.6875 L 147.152344 157.449219 L 146.171875 153.796875 C 144.183594 154.25 142.683594 156.039062 142.683594 158.160156 L 142.683594 162.851562 C 142.683594 165.308594 144.695312 167.320312 147.152344 167.320312 L 147.152344 171.28125 C 147.152344 178.203125 150.390625 184.40625 155.9375 188.304688 L 155.9375 143.804688 C 157.054688 139.640625 167.726562 137.210938 179.992188 136.515625 C 182.007812 139.007812 184.988281 140.585938 188.25 140.816406 C 183.472656 138.304688 181.367188 132.585938 183.375 127.574219 Z M 183.375 127.574219 " fill-opacity="1" fill-rule="evenodd"/></g><g fill="#263151" fill-opacity="1"><g transform="translate(94.480583, 242.390125)"><g><path d="M 0 0 L 8.640625 -29.484375 L 20.796875 -29.484375 L 29.4375 0 L 21.515625 0 L 20.046875 -5.875 L 9.40625 -5.875 L 7.921875 0 Z M 10.875 -11.640625 L 18.5625 -11.640625 L 15.4375 -23.84375 L 14 -23.84375 Z M 10.875 -11.640625 "/></g></g></g><g fill="#263151" fill-opacity="1"><g transform="translate(127.917654, 242.390125)"><g><path d="M 2.796875 0 L 2.796875 -29.484375 L 10.28125 -29.484375 L 10.28125 -6.078125 L 23.796875 -6.078125 L 23.796875 0 Z M 2.796875 0 "/></g></g></g><g fill="#263151" fill-opacity="1"><g transform="translate(156.315227, 242.390125)"><g><path d="M 2.796875 0 L 2.796875 -29.484375 L 24.953125 -29.484375 L 24.953125 -23.40625 L 10.28125 -23.40625 L 10.28125 -17.15625 L 23.125 -17.15625 L 23.125 -11.515625 L 10.28125 -11.515625 L 10.28125 0 Z M 2.796875 0 "/></g></g></g><g fill="#263151" fill-opacity="1"><g transform="translate(185.872682, 242.390125)"><g><path d="M 2.796875 0 L 2.796875 -29.484375 L 22.875 -29.484375 L 27.359375 -25.046875 L 27.359375 -14.484375 L 24 -11.125 L 28.484375 0 L 20.953125 0 L 17.078125 -10.046875 L 10.28125 -10.046875 L 10.28125 0 Z M 10.28125 -15.71875 L 18.6875 -15.71875 L 20.078125 -17.125 L 20.078125 -22.40625 L 18.6875 -23.796875 L 10.28125 -23.796875 Z M 10.28125 -15.71875 "/></g></g></g><g fill="#263151" fill-opacity="1"><g transform="translate(219.549724, 242.390125)"><g><path d="M 2.796875 0 L 2.796875 -29.484375 L 25.203125 -29.484375 L 25.203125 -23.40625 L 10.28125 -23.40625 L 10.28125 -17.953125 L 23.71875 -17.953125 L 23.71875 -12.3125 L 10.28125 -12.3125 L 10.28125 -6.078125 L 25.203125 -6.078125 L 25.203125 0 Z M 2.796875 0 "/></g></g></g><g fill="#263151" fill-opacity="1"><g transform="translate(250.747014, 242.390125)"><g><path d="M 2.796875 0 L 2.796875 -29.484375 L 22.046875 -29.484375 L 28.15625 -23.359375 L 28.15625 -6.125 L 22.046875 0 Z M 10.28125 -5.6875 L 18.796875 -5.6875 L 20.921875 -7.796875 L 20.921875 -21.6875 L 18.796875 -23.796875 L 10.28125 -23.796875 Z M 10.28125 -5.6875 "/></g></g></g></svg>